PathFileType	4	(X/Y/Z)	Patient4_TMGait_0pt6_01_right_31.trc.trc
DataRate	CameraRate	NumFrames	NumMarkers	Units	OrigDataRate	OrigDataStartFrame	OrigNumFrames
83.333333333333	83.333333333333	6	33	mm	83.333333333333	89	       141
Frame#	Time	Sacral			L.Shoulder			Chest			R.Shoulder			Neck			R.ASIS			L.ASIS			R.Thigh.Superior			R.Thigh.Lateral			R.Thigh.Inferior			R.Patella			L.Thigh.Superior			L.Thigh.Lateral			L.Thigh.Inferior			L.Patella			L.Shank.Superior			L.Shank.Lateral			L.Shank.Inferior			R.Shank.Superior			R.Shank.Lateral			R.Shank.Inferior			R.Heel			R.Midfoot.Superior			R.Midfoot.Lateral			R.Toe			L.Heel			L.Midfoot.Lateral			L.Midfoot.Superior			L.Toe			L.Elbow			L.Wrist			R.Elbow			R.Wrist			
		X1	Y1	Z1	X2	Y2	Z2	X3	Y3	Z3	X4	Y4	Z4	X5	Y5	Z5	X6	Y6	Z6	X7	Y7	Z7	X8	Y8	Z8	X9	Y9	Z9	X10	Y10	Z10	X11	Y11	Z11	X12	Y12	Z12	X13	Y13	Z13	X14	Y14	Z14	X15	Y15	Z15	X16	Y16	Z16	X17	Y17	Z17	X18	Y18	Z18	X19	Y19	Z19	X20	Y20	Z20	X21	Y21	Z21	X22	Y22	Z22	X23	Y23	Z23	X24	Y24	Z24	X25	Y25	Z25	X26	Y26	Z26	X27	Y27	Z27	X28	Y28	Z28	X29	Y29	Z29	X30	Y30	Z30	X31	Y31	Z31	X32	Y32	Z32	X33	Y33	Z33	

89	38.146000000000	749.898331072623	1011.019772061241	460.307212746385	904.022479000913	1436.304063719842	269.626303684345	1023.708349394443	1368.784958339969	418.713467481457	956.817142286531	1440.814777765271	599.309962999070	898.065568085061	1495.045135565523	424.167278212092	979.044041881508	936.090981313639	559.639874789998	951.524439135833	962.571320823484	287.778159336291	1013.408010018268	731.465960035982	537.241590952185	932.812596766345	623.521578742298	603.066168667631	1011.277008525188	563.152688161977	526.898875773283	998.248153841356	452.849953063357	545.609399779977	1013.040059116340	759.239791286782	317.240670566408	930.274947620642	637.765427516371	264.205761416840	1021.757685510676	566.672099602536	325.598322690327	1026.785412492283	497.967269132966	336.603146760132	1007.229626941807	424.919093659726	330.761735340894	927.460636243475	301.904249182466	284.135364621277	990.284673808521	197.741740178296	357.286754416002	916.613088077505	390.109206875835	549.901580070508	793.603976648692	356.349083299262	609.649241446915	773.372322653648	249.885309604236	557.641985256665	566.923204843673	190.495778336651	526.951115210026	737.571549527401	138.143041224947	570.983559332037	627.237980044435	136.036701546672	602.909398980185	804.333656837631	34.538462312126	602.243272876526	873.977058751966	38.044861352070	404.526424500208	947.628062639229	35.443508647394	323.014558038338	1029.781102783341	97.471620182236	348.849439602155	1158.806119544676	47.738318342341	321.411956981732	833.560840233578	1082.391642291211	170.423317793126	860.659552486784	823.944759913618	183.074311582236	1032.816926622826	1099.510793326406	707.591835802931	1274.237950452622	1125.656644611346	643.255637562650	
90	38.158000000000	749.363945023448	1011.232217479333	457.827151300204	904.934533391725	1436.929089840082	267.961347855476	1023.118577311850	1369.659555347939	418.310710265679	954.259395590485	1441.362657435165	598.343253733536	897.285768656485	1495.776546587088	422.523652358449	978.135797796642	937.120960622594	558.742863363579	952.049380266000	963.129324321254	286.794803557119	1017.771869956202	734.669288522198	536.084214139109	940.357164665305	625.133482975035	602.111956653901	1020.464259114403	566.275279757719	525.976240246010	1009.304964476202	454.902805490168	544.951500229065	1011.575093790019	758.288413973065	315.926532077930	927.645737312160	637.817602409067	263.184400973026	1018.003215589056	565.889559475510	324.940070414485	1022.212244672602	497.283811842362	336.105455081658	1002.342454114660	424.435210988766	330.269362624521	922.017762741299	301.823230392908	283.668414125812	983.927347274586	197.391671226454	357.110365793870	926.313770557861	392.492156150766	549.296156987868	802.186628751082	362.028368415910	608.761450816847	779.568432859345	255.860708439934	557.357472502865	572.009711150017	202.565004771108	526.422338463060	740.935610127180	144.459764168162	570.890767342373	630.368795336166	146.246244238947	602.690359656862	804.090242926529	36.914051175858	602.768603216890	866.706498978791	38.045992661498	404.456992709354	940.371357658795	35.404169298767	322.975284800456	1022.694485024464	97.249384359814	348.884437515361	1151.684079712264	47.108967849102	321.411086000999	840.675690241238	1082.034477492887	166.703463779916	877.284207196998	824.502844977287	178.558548300090	1022.670540965373	1097.746817878731	706.372941409322	1265.821385950556	1109.066245445555	642.901282521321	
91	38.170000000000	748.737113715044	1011.414195918794	455.437985885528	905.798368806012	1437.470964130877	266.443775126412	1022.445845783876	1370.453638310349	418.057325443749	951.610396538979	1441.817352292139	597.508160396578	896.452322779899	1496.463636220871	420.967159317481	977.070618813739	938.125182953192	557.925524906662	952.464205553423	963.652148156923	285.901344168255	1021.765989491643	738.041326351356	534.794980464641	947.744982173397	627.059617255013	601.254942076606	1029.261391683351	569.792989270097	525.005904588596	1020.239183698347	457.474178884710	544.259697037481	1010.059140160124	757.421564145265	314.867532470574	925.083669048948	637.891713465650	262.236683656504	1014.294175663474	565.148219039819	324.384232728579	1017.695140310027	496.619890864597	335.675947686970	997.502909068373	423.971202954870	329.833835657694	916.620791849785	301.777473544379	283.211289576687	977.611345448334	197.063267058376	356.935712994264	936.176087632430	395.155239872105	548.733985672056	811.145244101598	367.457695964039	607.939554813411	786.548526535810	261.577890143039	557.071754837902	578.223416866531	213.189617979941	525.816982706720	745.581242058707	150.633631178373	570.832489603703	634.906614263410	155.525622122403	602.435189699408	805.776104355172	39.987456977545	603.397401901735	859.459062731107	38.069051767557	404.371213219871	933.144563276815	35.384132128598	322.928776176945	1015.630323924833	97.055329248026	348.909589579926	1144.581848979409	46.503316601271	321.408092068194	848.117924222084	1081.734516248832	163.001659075994	894.368475954803	825.493653735614	174.033104514884	1012.360427550342	1096.090528430063	705.278157578846	1256.454209876759	1091.375666617142	642.887820652157	
92	38.182000000000	748.013483210530	1011.610789405889	453.131025892410	906.590334440098	1437.975145341916	265.087621434411	1021.699288694656	1371.190691175235	417.930562060046	948.923772588621	1442.206625560477	596.790029994630	895.580580103446	1497.127563074153	419.510699485162	975.853311394598	939.136863557743	557.169031670453	952.783992743277	964.170168349567	285.086581658418	1025.348906059193	741.586326370301	533.387720032238	954.905256898240	629.306344850205	600.507318693306	1037.623631753815	573.698289180869	524.026139903638	1030.989121987650	460.559115428116	543.600104038294	1008.527686963524	756.646698612869	314.018373991071	922.544194521044	637.988736999485	261.374301548843	1010.616822290457	564.439109924672	323.910446330791	1013.225320595161	495.978313774600	335.322676294086	992.702134111829	423.532177245705	329.463921397915	911.256850799824	301.774141090973	282.777357950542	971.326142515590	196.763451470002	356.772167297903	946.159740315781	398.082688361468	548.263774193074	820.428606654416	372.522385844404	607.223514712241	794.346710193624	266.873232272909	556.827953348499	585.553070032835	222.076626011454	525.197330969311	751.619957475998	156.415336342824	570.844913516790	640.907133439478	163.563220591553	602.183403437583	809.582292018959	43.553176530945	604.105886334163	852.230340502719	38.112521741508	404.272139502860	925.941786710793	35.383534717120	322.875752105263	1008.575331296606	96.894288176167	348.923039667139	1137.487124162513	45.947022220168	321.397476350785	855.898064872431	1081.552039582216	159.356861183261	911.840931577971	826.994679420603	169.531740967869	1001.974988788690	1094.600167817576	704.309918034211	1246.015495264462	1072.745019565992	643.239187734635	
93	38.194000000000	747.182359217867	1011.857764221333	450.894488139032	907.301888161388	1438.480619533569	263.896188210138	1020.891015328572	1371.888888425400	417.909590412254	946.241525117631	1442.552260224787	596.173207708669	894.686977377180	1497.781891606190	418.169621129868	974.494092987532	940.181907853950	556.468224819470	953.029805915210	964.703137565520	284.348611789227	1028.509891426744	745.302092039945	531.908835105293	961.775121895033	631.862492665672	599.879800342190	1045.528562533131	577.966268267478	523.084553373604	1041.495288387928	464.137944950493	543.024530987385	1006.996166427184	755.952404393893	313.337811612639	919.981407646808	638.106340847458	260.604276352028	1006.947803629310	563.751604038875	323.507099210706	1008.781472708364	495.357936469844	335.053529943568	987.921304727379	423.119095969411	329.167421769243	905.907027676227	301.813401228509	282.380926053355	965.057511123066	196.495033003512	356.630408215268	956.224817478654	401.246454989440	547.920401986123	829.993038484010	377.109286799800	606.650768539979	802.983903348944	271.591767453587	556.665666501163	593.981885841413	228.999073116841	524.642104421492	759.133854933170	161.564814703125	570.961789930469	648.405495057396	170.094329945018	601.986457550932	815.638447951705	47.332334194715	604.866470740449	845.012888620701	38.172492063145	404.164983578754	918.754705512846	35.399901305350	322.818598268426	1001.516776183782	96.766770635233	348.925752453584	1130.388066730886	45.455426150870	321.377424035692	864.002530286598	1081.545671803258	155.803808151657	929.627786702768	829.075765787446	165.087876540512	991.600940215890	1093.318509248698	703.465715714505	1234.389175697034	1053.363907430785	643.978925755132	
94	38.206000000000	746.231327722272	1012.175902740167	448.717550912933	907.939848028110	1439.014953951570	262.863810833093	1020.035660425462	1372.557956677189	417.977813637395	943.592891095799	1442.866896893295	595.643403168488	893.789320429522	1498.431063134507	416.961693457790	973.008808041478	941.276321806813	555.830229783012	953.225563909159	965.259098822635	283.690660999942	1031.263108065613	749.176177995204	530.428435451889	968.299937456498	634.698391236946	599.380713752211	1052.967254746661	582.553209776156	522.230857076206	1051.697685091235	468.175007571228	542.568665735406	1005.461777117345	755.315513875343	312.796807436714	917.359678824020	638.239465128313	259.929418297314	1003.261571485995	563.075947843175	323.172210352098	1004.337445494277	494.754701753112	334.874863473478	983.138263217507	422.729074854490	328.949313005629	900.551218469819	301.889506276663	282.034805385022	958.791236332551	196.256731009564	356.520457574684	966.327968232464	404.605873080956	547.724025265867	839.799687408107	381.112242479756	606.254670830291	812.463700003497	275.596852845521	556.619710233209	603.489155398518	233.796969905381	524.238907926832	768.170376785951	165.869620260036	571.213481548606	657.416738797439	174.911519190901	601.903465995520	824.011399050071	51.018440273273	605.652859492100	837.798156314277	38.243294833610	404.056116489202	911.574536679796	35.429009612214	322.760681108920	994.444263843355	96.670124869112	348.920754434879	1123.275088028904	45.035102753899	321.348949827914	872.391516728558	1081.764649173849	152.371772556876	947.652311977830	831.793647309700	160.733269999732	981.319858192179	1092.264890018771	702.737482978541	1221.469062176683	1033.446352692949	645.128007287926	
